PathFileType	4	(X/Y/Z)	c:/Users/goper/Files/vsCode/490R/osim_files/A05/A05_Slow_04.trc
DataRate	CameraRate	NumFrames	NumMarkers	Units                	OrigDataRate	OrigDataStartFrame	OrigNumFrames
250.00	250.00	8	36	mm	250.0	1918	3068
                Frame#	Time	LPSIS			LASIS			LTH1			LTH2			LTH3			LTH4			LLFE			LMFE			LSH1			LSH2			LSH3			LSH4			LLMAL			LMMAL			LCAL			LMTP5			LTOE			LMTP1			RPSIS			RASIS			RTH1			RTH2			RTH3			RTH4			RLFE			RMFE			RSH1			RSH2			RSH3			RSH4			RLMAL			RMMAL			RCAL			RMTP1			RTOE			RMTP5		
		X1	Y1	Z1	X2	Y2	Z2	X3	Y3	Z3	X4	Y4	Z4	X5	Y5	Z5	X6	Y6	Z6	X7	Y7	Z7	X8	Y8	Z8	X9	Y9	Z9	X10	Y10	Z10	X11	Y11	Z11	X12	Y12	Z12	X13	Y13	Z13	X14	Y14	Z14	X15	Y15	Z15	X16	Y16	Z16	X17	Y17	Z17	X18	Y18	Z18	X19	Y19	Z19	X20	Y20	Z20	X21	Y21	Z21	X22	Y22	Z22	X23	Y23	Z23	X24	Y24	Z24	X25	Y25	Z25	X26	Y26	Z26	X27	Y27	Z27	X28	Y28	Z28	X29	Y29	Z29	X30	Y30	Z30	X31	Y31	Z31	X32	Y32	Z32	X33	Y33	Z33	X34	Y34	Z34	X35	Y35	Z35	X36	Y36	Z36

1918	7.66800	0.00000	0.00000	0.00000	-2205.48071	1000.44818	409.48264	0.00000	0.00000	0.00000	-2153.59521	672.93585	469.08572	-2186.25269	734.00281	482.89331	-2199.96436	693.24353	482.56961	-2252.66187	521.52838	471.94406	-2253.10034	511.31982	371.10684	-2279.65967	417.41583	476.83130	-2272.76855	375.25745	486.14252	-2220.74219	424.52249	489.95010	-2222.72534	382.66095	496.14255	-2245.47900	157.37834	508.42188	-2247.46167	152.06213	418.19690	0.00000	0.00000	0.00000	-2374.79688	102.71155	540.73956	-2422.05225	118.72514	477.41714	-2382.62256	104.84426	430.79611	-2044.10132	1038.58215	197.79575	-2235.85693	979.73291	115.58196	-2178.48779	599.72034	82.10550	-2185.73901	560.92987	97.19717	-2231.94727	610.80310	108.63766	-2229.23682	564.91095	123.92727	-2139.19092	511.68771	102.67641	-2170.60962	507.71799	243.22809	-2095.85010	266.73856	112.75330	0.00000	0.00000	0.00000	-2154.63354	254.23143	126.17215	-2139.55298	209.36188	131.21518	-2075.43188	110.58044	152.47391	-2121.57275	137.70282	239.54669	-2021.15002	71.30127	233.33929	-2234.40576	57.43230	231.48021	-2263.89819	64.68668	176.91473	-2198.34302	45.63656	116.84693
1919	7.67200	-2024.53149	1040.57910	276.09232	-2208.09521	1000.17279	409.43759	-2135.45898	714.13641	477.85971	-2157.05664	673.32043	470.41733	-2188.64795	733.06445	483.00830	-2203.10742	693.13025	482.68304	-2255.81470	521.45886	472.06262	-2255.41748	510.96451	371.25458	-2284.43945	417.85565	476.92456	-2277.98364	375.46304	486.38901	-2225.46313	424.03537	490.55969	-2227.81519	382.06754	496.85898	-2253.98584	157.44312	509.37808	-2257.38940	150.97934	419.56143	-2174.48413	94.42577	464.92593	-2383.52686	103.08331	541.37659	-2431.25000	121.26545	476.96527	-2391.22583	106.52143	430.66068	-2046.33008	1038.39478	198.15511	0.00000	0.00000	0.00000	-2179.83545	599.54120	82.16414	-2186.95776	560.74774	97.26093	-2233.25854	610.48511	108.63218	-2230.45166	564.67969	123.96474	-2139.95532	511.82895	102.92111	-2171.66138	507.56824	243.26408	-2096.12451	266.75586	112.78452	0.00000	0.00000	0.00000	-2154.93555	254.13577	126.17078	-2139.84033	209.31459	131.21986	-2075.50122	110.64570	152.49046	-2121.67261	137.69234	239.58290	-2020.75354	71.89147	232.57237	-2234.40674	57.46729	231.49763	-2263.88623	64.70473	176.88261	-2198.31812	45.59854	116.81250
1920	7.67600	0.00000	0.00000	0.00000	-2210.51636	999.82959	409.30792	-2138.51562	714.01709	478.18713	-2160.27100	673.55457	470.97122	-2191.75244	732.91107	483.17612	-2206.23804	693.01758	482.80466	-2259.00684	521.18243	472.41495	-2257.82373	510.60556	371.45627	-2288.90747	418.10684	477.06262	-2283.35425	375.76978	486.68210	-2230.06006	423.50143	491.17700	-2232.96948	381.08588	497.83673	-2262.33350	157.62167	510.16479	-2258.49219	148.13472	421.66803	-2184.80420	94.44818	464.50659	-2393.52588	105.22507	541.41742	-2439.98120	123.74178	476.49173	-2399.71362	108.24664	430.51468	-2048.62695	1038.13171	198.51465	-2240.03296	979.38818	115.55083	-2180.98047	599.41028	82.16421	-2188.82739	560.88348	97.10717	-2234.48975	610.28583	108.60562	-2231.54614	564.42505	123.92359	-2140.74170	511.97275	103.16312	-2172.92554	507.41522	243.33063	-2096.41040	266.72446	112.87803	0.00000	0.00000	0.00000	-2155.28735	254.03685	126.19651	-2140.65796	209.48676	131.22243	-2075.62915	110.68388	152.50835	-2121.84912	137.70734	239.64658	-2020.74121	71.88204	232.61000	-2234.43896	57.41576	231.53017	-2263.83569	64.65857	176.85008	-2198.27026	45.53887	116.79020
1921	7.68000	0.00000	0.00000	0.00000	-2213.35498	999.68439	409.43781	0.00000	0.00000	0.00000	-2163.22339	672.89825	471.40985	-2195.54395	733.61188	483.34863	-2209.34277	692.91455	482.97363	-2262.56836	521.59363	470.55927	-2260.45288	510.28357	371.68506	-2293.39038	418.36765	477.20630	-2288.65503	376.10037	486.93106	-2234.73682	423.10571	491.77390	-2238.39819	381.28500	498.24530	-2270.52881	157.81183	510.96536	-2266.34155	148.12109	422.59113	0.00000	0.00000	0.00000	-2402.78589	107.13193	541.35175	-2448.46655	126.11052	476.03033	-2408.05566	110.03681	430.41263	-2050.82715	1037.91125	198.90071	-2241.92236	979.19049	115.56039	-2182.20972	599.26984	82.19779	-2189.23364	560.48651	97.25148	-2235.74536	609.99963	108.58544	-2232.78906	564.17859	123.95284	-2141.54956	512.11902	103.40217	-2174.02832	507.20718	243.38126	-2096.84448	266.71118	112.93563	0.00000	0.00000	0.00000	-2155.67651	253.89635	126.25596	-2140.89868	209.40659	131.22728	-2075.72900	110.71522	152.51157	-2121.97070	137.69272	239.68817	-2020.68835	71.95540	232.65320	-2234.52197	57.48163	231.53770	-2263.83350	64.67436	176.83270	-2198.24902	45.51236	116.77389
1922	7.68400	-2037.21997	1038.15247	280.21957	-2215.74561	999.26050	409.21475	-2144.49707	713.57751	478.62708	-2166.18921	672.70306	471.83798	-2198.62378	733.43091	483.51678	-2212.39941	692.75256	483.09958	-2266.09814	522.37811	471.92761	-2263.15991	510.03510	371.95480	-2298.25732	418.85214	477.36279	-2293.89795	376.41916	487.23428	-2239.48682	422.73904	492.35870	-2243.70239	381.00302	498.86038	-2278.99243	157.85571	511.93076	-2273.79370	148.09845	423.39456	0.00000	0.00000	0.00000	-2411.82422	109.04002	541.26392	-2456.75708	128.43504	475.58505	-2416.24731	111.80832	430.30856	-2052.98389	1037.73694	199.24591	0.00000	0.00000	0.00000	-2183.52124	599.16418	82.26332	-2190.44702	560.34753	97.25513	-2237.02466	609.73022	108.57153	-2233.94482	563.92554	123.93376	-2142.38062	512.26770	103.63799	-2175.09741	507.00125	243.37668	-2097.30200	266.76407	112.92696	0.00000	0.00000	0.00000	-2156.03418	253.75726	126.30704	-2141.13281	209.32330	131.22644	-2075.71387	110.78957	152.50647	-2122.10815	137.67722	239.69020	-2020.82068	71.93414	232.66440	-2234.49146	57.50283	231.48087	-2263.85742	64.69447	176.81973	-2198.28076	45.51368	116.76371
1923	7.68800	-2038.10583	1037.04248	281.59796	-2218.30713	998.94360	409.11984	0.00000	0.00000	0.00000	-2169.34106	672.38586	472.33789	-2201.50977	733.25574	483.69949	-2215.39990	692.56940	483.29767	-2268.91089	521.28711	472.82339	-2265.88110	509.79260	372.16635	-2302.95557	419.25922	477.50674	-2299.14917	376.72046	487.45340	-2244.14746	422.45364	492.86819	-2248.98242	380.75708	499.45334	-2287.06787	158.03656	512.67926	-2288.13989	150.74075	422.99463	-2210.84619	92.03973	468.71115	-2420.65381	110.90352	541.16461	-2464.89233	130.75241	475.18228	-2424.26562	113.54527	430.18686	-2055.18091	1037.53650	199.65395	0.00000	0.00000	0.00000	-2185.51074	599.23669	82.12781	-2192.32251	560.44781	97.16137	-2238.27222	609.45886	108.59725	-2235.15430	563.69342	123.83775	-2143.23535	512.41876	103.87035	-2176.32349	506.78635	243.41531	-2097.70239	266.81668	112.99541	-2090.86646	222.90266	125.11556	-2156.36768	253.61700	126.37421	-2140.78906	208.99333	131.27596	-2075.77319	110.83318	152.47719	-2122.16162	137.61900	239.66353	-2022.51599	70.86008	233.29300	-2234.41553	57.45380	231.45633	-2263.90015	64.66372	176.78889	-2198.21851	45.45099	116.74632
1924	7.69200	0.00000	0.00000	0.00000	-2221.02686	998.68311	409.20120	-2150.47168	713.07306	479.22244	-2172.40332	672.14215	472.75385	-2204.46533	733.01337	483.86008	-2218.52246	692.39709	483.52206	-2272.35229	521.25293	473.08823	-2268.49609	509.72546	372.39038	-2307.50903	419.63892	477.67575	-2304.21997	377.06091	487.74677	-2248.83008	422.18430	493.34341	-2254.25391	380.55161	499.96719	-2293.47827	157.80881	515.17572	-2295.60596	150.81514	423.63120	-2218.07007	89.40807	471.41144	-2428.85400	112.66260	541.08832	-2472.89600	133.11064	474.84650	-2432.20728	115.32832	430.04459	-2057.34790	1037.33093	200.05360	0.00000	0.00000	0.00000	-2185.93091	598.87036	82.26257	-2192.75342	560.04272	97.33482	-2239.51221	609.18463	108.59213	-2236.37012	563.43134	123.84750	-2144.11426	512.57220	104.09898	-2175.87817	505.76410	243.06752	-2098.08618	266.90115	113.04613	-2091.13965	222.35017	125.07716	-2156.71216	253.52356	126.40781	-2141.04688	208.91417	131.33441	-2075.88013	110.80898	152.51387	-2122.21558	137.50943	239.69337	-2022.52661	70.85995	233.33493	-2234.38599	57.40598	231.45174	-2263.57422	64.41203	176.80150	-2198.23853	45.44233	116.73741
1925	7.69600	0.00000	0.00000	0.00000	-2223.37402	998.24072	409.06543	0.00000	0.00000	0.00000	-2175.51025	671.89197	473.15781	-2207.38745	732.80249	484.07010	-2221.54053	692.21722	483.72202	-2275.91504	521.27875	473.36572	-2273.66089	508.61932	372.40424	-2312.15063	420.03625	477.90427	-2309.50708	377.42892	488.03061	-2253.59473	421.95465	493.80667	-2259.47412	380.46271	500.48215	-2301.16406	158.14890	515.73029	0.00000	0.00000	0.00000	-2226.23999	88.94443	472.12350	-2437.20239	114.48392	541.05597	-2480.55493	135.30177	474.56525	-2440.16895	117.20319	430.10269	-2059.62476	1037.09229	200.39844	0.00000	0.00000	0.00000	-2187.20459	598.72351	82.35951	-2193.96143	559.89984	97.34206	-2240.82544	608.93219	108.57668	-2237.56885	563.14764	123.84041	-2145.01880	512.72803	104.32364	-2178.41675	506.29279	243.47456	-2098.44678	266.99597	113.08995	-2091.49829	222.42439	125.06877	-2157.10791	253.43423	126.45380	-2141.32568	208.83719	131.36157	-2075.98779	110.80109	152.57320	-2122.40234	137.48286	239.75975	-2022.55872	70.86874	233.39192	-2234.34888	57.35524	231.44102	-2263.54150	64.38195	176.77293	-2198.22852	45.40225	116.67751
